User Type,Username,Date,Text
,nexuswolf,2012-03-04T12:21Z,"Description:


Video
ID                                       : 1
Format                                   : AVC
Format/Info                              : Advanced Video Codec
Format profile                           : Main@L4.1
Format settings, CABAC                   : Yes
Format settings, ReFrames                : 2 frames
Muxing mode                              : Header stripping
Codec ID                                 : V_MPEG4/ISO/AVC
Duration                                 : 1h 35mn
Bit rate                                 : 1 500 Kbps
Width                                    : 1 920 pixels
Height                                   : 1 080 pixels
Display aspect ratio                     : 16:9
Frame rate mode                          : Variable
Frame rate                               : 23.976 fps
Color space                              : YUV
Chroma subsampling                       : 4:2:0
Bit depth                                : 8 bits
Scan type                                : Progressive
Bits/(Pixel*Frame)                       : 0.030
Stream size                              : 995 MiB (75%)
Title                                    : Megamind [Half SBS] [Full HD] [3D]
Language                                 : zxx

Audio
ID                                       : 2
Format                                   : AC-3
Format/Info                              : Audio Coding 3
Mode extension                           : CM (complete main)
Muxing mode                              : Header stripping
Codec ID                                 : A_AC3
Duration                                 : 1h 35mn
Bit rate mode                            : Constant
Bit rate                                 : 448 Kbps
Channel(s)                               : 6 channels
Channel positions                        : Front: L C R, Side: L R, LFE
Sampling rate                            : 48.0 KHz
Bit depth                                : 16 bits
Compression mode                         : Lossy
Stream size                              : 306 MiB (23%)
Title                                    : English
Language                                 : English"
,nexuswolf,2012-03-04T12:22Z,"This Is My First 3D Torrent.....More R Coming!!
Hope You Like It!!!!"
,jameslast905,2012-03-04T13:27Z,what other 3d films do you have and are they small size like this one ?
,nexuswolf,2012-03-04T14:06Z,"@jameslast905
Step Up 3D
Avatar 3D
Last Airbender 3D
Kung Fu Panda 2 3D
Resident Evil:Afterlife 3D
Priest 3D
Rio 3D
G-Force 3D

I'll Have 2 encode them in small size.If u want ny of these Just Pop Up A Request"
,nexuswolf,2012-03-04T19:25Z,"Next:
Kung Fu Panda 2 3D"
,nexuswolf,2012-03-04T20:48Z,"Next:
Step Up 3D
Later:
Kung Fu Panda 2"
,bobhere28,2012-05-14T17:42Z,Please post kung fu panda 2 3D
,nexuswolf,2012-05-18T09:59Z,k....right on it...
